<svg viewBox="0 0 108.96955128205128 67.37700534759358" xml:space="preserve" version="1.1" xmlns:xlink="http://www.w3.org/1999/xlink" xmlns="http://www.w3.org/2000/svg" style="max-height: 500px" width="108.96955128205128" height="67.37700534759358">
        <desc>Created By Mental</desc>
        <defs>
          
          
          
        </defs><g transform="scale(0.3348979766803841 0.3348979766803841)"><g id="undefined" style="" transform="">
      
      <g id="Layer 2" transform="matrix(1 0 0 1 156.81 129.2)">
      
          
          
          
          
          <g transform="translate(-156.37000016204652, 69.55034802971511) scale(0.23656580962488127, -0.23656580962488127)"><path fill="rgb(238, 64, 54)" d="M376 568C376 568 375 556 391 556C440 556 487 648 497 672C508 696 538 789 503 824C494 833 478 840 457 840C392 840 274 779 121 524C-85 184 7 -2 143 -2C288 -2 480 283 480 346C480 319 272 104 159 104C142 104 127 109 115 121C69 168 111 329 190 487C270 653 416 790 461 790C465 790 468 789 470 787C490 767 419 568 376 568Z" opacity="1"/></g><g transform="translate(-42.34527992285375, 69.55034802971511) scale(0.23656580962488127, -0.23656580962488127)"><path fill="rgb(238, 64, 54)" d="M92 105C75 122 91 222 119 294C132 329 187 435 213 435C215 435 217 434 219 432C234 417 219 327 195 270C174 219 119 105 92 105ZM242 128C233 169 283 322 332 452C327 466 308 477 291 477C287 477 283 476 279 474C272 470 264 458 256 440C253 451 249 460 243 465C234 474 224 478 213 478C161 478 85 398 40 300C-8 185 -15 74 35 24C42 17 50 14 58 14C90 14 130 57 165 111C167 73 194 21 227 21C295 21 376 245 376 286C366 265 255 128 242 128Z" opacity="1"/></g><g transform="translate(36.66770049185661, 69.55034802971511) scale(0.23656580962488127, -0.23656580962488127)"><path fill="rgb(238, 64, 54)" d="M114 489C108 489 112 525 119 547C125 568 138 593 143 593C150 593 139 551 136 541C134 530 119 489 114 489ZM140 111C133 111 130 138 130 166C130 221 176 335 176 378C176 421 146 452 134 458C139 469 205 636 162 650C158 651 153 652 149 652C86 652 59 495 59 481C59 465 65 434 87 412C60 350 -79 19 -102 19C-94 16 -86 14 -78 14C-65 14 -52 19 -48 28C-45 37 106 385 107 389C108 388 112 388 112 377C112 344 55 221 55 146C55 96 76 11 138 11C200 11 260 222 260 261C260 242 170 111 140 111Z" opacity="1"/></g><g transform="translate(90.60470508632955, 69.55034802971511) scale(0.23656580962488127, -0.23656580962488127)"><path fill="rgb(238, 64, 54)" d="M148 93C147 92 146 92 144 92C127 92 62 125 52 165C69 157 126 153 136 153C144 145 156 101 148 93ZM319 266C310 249 240 196 195 196C188 207 165 252 165 298C165 343 232 449 270 449C270 461 266 482 235 482C177 482 101 372 101 279C101 247 115 198 120 190C79 190 1 200 1 213C-33 174 55 4 152 4C184 4 224 28 224 102C224 132 212 158 211 161C258 161 319 235 319 266Z" opacity="1"/></g>
      </g>
      
      <g id="Layer 1" transform="matrix(1 0 0 1 275.09 NaN)">
      
          
          
          
          
          
      </g></g></g></svg>